:SAMPLES-PER-SECOND 30
:FULLY-SPECIFIED
:DEGREES
224
root  94.3479 37.344 -28.5611 21.9146 -84.4559 14.5612
RightUpLeg  -63.5904 -12.4861 9.29575
RightLeg  34.8372 -7.18054 -5.60153
RightFoot  -5.69899 0.352964 -7.92373
RightToes  0.000482159 0.542163 -0.142577
Spine  72.0665 -3.83602 8.07896
Spine1  3.48281 3.15265 -4.5827
HEad  -41.1103 -8.4357 5.15421
LeftShoulder1  11.3525 -30.7721 -26.6537
LeftArm  -73.7505 -75.4902 26.2126
LeftForeArm  19.3065 -3.3903 -3.06885
LeftHand  -0.25398 0.0180481 5.50724
RightShoulder  2.76833 11.0126 11.6707
RightArm  -68.1806 67.757 -14.8493
RightForeArm  -19.2211 4.55421 3.26202
RightHand  -1.84529 3.81217 -23.3379
LeftUpLeg  -62.484 13.4783 -20.6117
LeftLeg  29.8338 -1.70185 -0.707679
LeftFoot  -4.5433 -0.428363 7.66039
LeftToes  1.06247e-005 4.65854e-005 -8.18501e-006
225
root  94.4241 37.5164 -28.5269 20.9474 -84.5993 14.2797
RightUpLeg  -61.77 -13.0243 9.49901
RightLeg  33.3674 -7.30705 -5.40083
RightFoot  -5.14127 0.418436 -8.34168
RightToes  0.000482159 0.542163 -0.142577
Spine  71.3261 -4.20153 8.21697
Spine1  4.11571 3.05431 -5.34058
HEad  -40.7439 -8.02073 5.49224
LeftShoulder1  10.6694 -30.8114 -24.5533
LeftArm  -71.4038 -75.8864 23.1224
LeftForeArm  19.4672 -1.96573 -2.85892
LeftHand  -0.25398 0.0180481 5.50724
RightShoulder  5.13562 12.1961 26.8447
RightArm  -85.9596 71.6939 -48.3864
RightForeArm  -19.6239 -1.32072 6.86868
RightHand  -2.16254 4.4713 -25.4383
LeftUpLeg  -60.6769 14.2053 -20.5671
LeftLeg  28.5177 -1.91403 -0.782602
LeftFoot  -3.98108 -0.479935 7.82394
LeftToes  1.06247e-005 4.65854e-005 -8.18501e-006
226
root  94.4848 37.7155 -28.4855 21.0274 -84.7653 12.7188
RightUpLeg  -59.576 -13.7767 10.0162
RightLeg  31.5232 -7.69008 -5.3048
RightFoot  -4.57221 0.481601 -8.64429
RightToes  0.000482159 0.542163 -0.142577
Spine  70.6437 -3.82389 8.27148
Spine1  4.10635 3.1372 -4.10636
HEad  -40.0062 -7.74218 4.1512
LeftShoulder1  11.3569 -30.5945 -26.8559
LeftArm  -66.2747 -76.6967 18.4029
LeftForeArm  21.1514 -0.0820552 -3.37563
LeftHand  -0.25398 0.0180481 5.50724
RightShoulder  4.38017 11.8773 21.8748
RightArm  -75.8004 72.7927 -32.2324
RightForeArm  -15.0875 -1.28726 5.54138
RightHand  -1.98373 3.90947 -24.7129
LeftUpLeg  -58.547 14.9824 -20.2113
LeftLeg  27.1127 -2.10462 -0.82982
LeftFoot  -3.42984 -0.510456 7.67046
LeftToes  1.06247e-005 4.65854e-005 -8.18501e-006
227
root  94.5196 37.9417 -28.4198 22.0791 -84.971 10.0468
RightUpLeg  -56.9639 -14.3083 9.93653
RightLeg  29.7436 -7.16917 -4.65289
RightFoot  -4.0175 0.505339 -8.29998
RightToes  0.000482159 0.542163 -0.142577
Spine  69.4686 -3.45931 8.0488
Spine1  5.22877 2.9122 -2.56599
HEad  -39.9672 -6.83049 2.36692
LeftShoulder1  11.749 -29.7714 -28.9354
LeftArm  -60.4866 -76.9314 13.8401
LeftForeArm  21.8998 2.367 -4.08891
LeftHand  -0.25398 0.0180481 5.50724
RightShoulder  2.20372 11.0901 7.67842
RightArm  -56.0036 70.8037 3.60607
RightForeArm  -10.3021 1.47505 1.8543
RightHand  -1.74889 3.06936 -23.9783
LeftUpLeg  -56.1306 15.7488 -19.6121
LeftLeg  25.5712 -2.19962 -0.809162
LeftFoot  -2.8912 -0.522736 7.30268
LeftToes  1.06247e-005 4.65854e-005 -8.18501e-006
228
root  94.5222 38.1988 -28.3384 22.838 -85.1962 7.52374
RightUpLeg  -54.0771 -15.0074 9.69335
RightLeg  27.8792 -6.16825 -3.75404
RightFoot  -3.34366 0.514194 -7.66315
RightToes  0.000482159 0.542163 -0.142577
Spine  68.2968 -4.35149 8.05228
Spine1  5.01917 2.06172 -3.27127
HEad  -38.5394 -5.43258 1.46763
LeftShoulder1  11.916 -28.704 -30.6599
LeftArm  -45.9942 -74.8788 1.00188
LeftForeArm  21.0936 4.04942 -5.13199
LeftHand  -0.25398 0.0180481 5.50724
RightShoulder  2.6148 12.4223 9.05639
RightArm  -45.6939 71.0431 15.4732
RightForeArm  -7.04001 0.432355 1.97765
RightHand  -1.88782 3.52657 -24.5405
LeftUpLeg  -53.3774 16.682 -19.0605
LeftLeg  23.7848 -2.35967 -0.802649
LeftFoot  -2.28618 -0.536013 6.9344
LeftToes  1.06247e-005 4.65854e-005 -8.18501e-006
229
root  94.4889 38.4703 -28.2645 23.3107 -85.4633 5.05005
RightUpLeg  -51.1318 -16.5645 10.3992
RightLeg  25.6416 -6.01302 -3.36947
RightFoot  -2.59883 0.515289 -6.95488
RightToes  0.000482159 0.542163 -0.142577
Spine  66.7807 -4.66869 7.92034
Spine1  5.8926 1.49778 -3.20853
HEad  -37.5526 -4.50543 0.754408
LeftShoulder1  11.0319 -27.3517 -29.4652
LeftArm  -32.9731 -71.0555 -14.1757
LeftForeArm  19.8506 3.78956 -4.94167
LeftHand  -0.25398 0.0180481 5.50724
RightShoulder  2.61999 12.6605 8.75751
RightArm  -34.3388 69.0451 29.0346
RightForeArm  -4.96664 1.38403 2.43659
RightHand  -2.27305 5.0792 -25.1776
LeftUpLeg  -50.3083 17.9365 -18.5445
LeftLeg  21.919 -2.74127 -0.881177
LeftFoot  -1.5845 -0.56471 6.71992
LeftToes  1.06247e-005 4.65854e-005 -8.18501e-006
230
root  94.4163 38.7398 -28.1965 24.927 -85.8244 1.19617
RightUpLeg  -47.4608 -16.88 9.50358
RightLeg  23.9083 -4.51175 -2.40821
RightFoot  -1.73379 0.540712 -6.5608
RightToes  0.000482159 0.542163 -0.142577
Spine  65.7474 -4.07843 8.06349
Spine1  5.12365 1.78787 -2.19083
HEad  -35.3336 -4.69204 -0.170468
LeftShoulder1  11.2633 -27.0215 -30.6276
LeftArm  -22.9145 -64.6442 -27.5857
LeftForeArm  21.516 2.7086 -4.58676
LeftHand  -0.25398 0.0180481 5.50724
RightShoulder  3.56649 13.3945 14.2653
RightArm  -24.8395 65.2502 32.2253
RightForeArm  -3.50955 1.11195 4.67943
RightHand  -2.99585 7.8559 -26.2189
LeftUpLeg  -46.9888 19.3848 -17.804
LeftLeg  20.1611 -3.2243 -0.972151
LeftFoot  -0.890791 -0.600446 6.61654
LeftToes  1.06247e-005 4.65854e-005 -8.18501e-006
231
root  94.3084 38.9863 -28.1291 26.0663 -86.184 -2.28091
RightUpLeg  -43.8215 -17.7774 9.16249
RightLeg  21.9695 -3.92864 -1.97173
RightFoot  -1.12618 0.521356 -5.90601
RightToes  0.000482159 0.542163 -0.142577
Spine  64.3664 -3.87381 8.08746
Spine1  4.77963 1.79603 -1.8882
HEad  -33.2419 -4.37233 -0.912339
LeftShoulder1  11.8081 -26.4341 -33.1978
LeftArm  -17.7981 -57.4854 -32.9765
LeftForeArm  23.1097 2.22304 -4.97187
LeftHand  -0.25398 0.0180481 5.50724
RightShoulder  4.19286 13.3492 18.3165
RightArm  -16.8087 61.1737 36.5591
RightForeArm  -1.45993 0.630774 6.19606
RightHand  -3.60657 9.73875 -27.6023
LeftUpLeg  -43.457 20.6386 -16.8295
LeftLeg  18.5365 -3.47519 -1.02112
LeftFoot  -0.377663 -0.628223 6.56171
LeftToes  1.06247e-005 4.65854e-005 -8.18501e-006
232
root  94.1645 39.2105 -28.0628 25.4375 -86.4593 -3.99886
RightUpLeg  -39.9732 -18.6306 8.43386
RightLeg  19.9451 -3.76213 -1.62159
RightFoot  -1.01727 0.411151 -4.62207
RightToes  0.000482159 0.542163 -0.142577
Spine  62.4112 -4.29474 7.87294
Spine1  5.55603 1.25506 -2.54654
HEad  -32.1003 -3.32179 -1.28978
LeftShoulder1  12.1824 -25.312 -36.0197
LeftArm  -14.8109 -50.7511 -32.7574
LeftForeArm  22.7564 2.21819 -6.00396
LeftHand  -0.25398 0.0180481 5.50724
RightShoulder  4.96098 13.7965 22.4214
RightArm  -12.0258 57.408 38.6996
RightForeArm  -0.462724 0.0192371 7.21709
RightHand  -3.6775 9.64096 -28.2747
LeftUpLeg  -39.571 21.0901 -15.2187
LeftLeg  16.9475 -2.6853 -1.19036
LeftFoot  -0.0102899 -0.641934 6.46427
LeftToes  1.06247e-005 4.65854e-005 -8.18501e-006
233
root  93.9872 39.4245 -28.0146 25.1694 -86.7027 -6.14175
RightUpLeg  -35.7898 -18.5838 6.83581
RightLeg  18.1917 -4.08246 -0.928724
RightFoot  -0.796143 0.356372 -3.91541
RightToes  0.000482159 0.542163 -0.142577
Spine  60.8412 -4.43861 7.64856
Spine1  5.30505 0.855979 -2.79016
HEad  -31.0735 -2.25455 -1.723
LeftShoulder1  12.6471 -24.1837 -39.3249
LeftArm  -12.2255 -43.1346 -31.5868
LeftForeArm  22.1016 1.69174 -6.93188
LeftHand  -0.25398 0.0180481 5.50724
RightShoulder  5.3035 13.9384 24.2204
RightArm  -9.47912 51.363 41.4945
RightForeArm  -0.214936 0.773934 7.52044
RightHand  -3.06445 7.71467 -27.0642
LeftUpLeg  -35.5054 20.7335 -12.8653
LeftLeg  15.6812 -0.939927 -1.53318
LeftFoot  0.406451 -0.623759 6.03395
LeftToes  1.06247e-005 4.65854e-005 -8.18501e-006
234
root  93.7757 39.6137 -27.9913 24.3849 -86.8481 -7.8855
RightUpLeg  -31.3157 -17.619 4.63992
RightLeg  16.687 -5.06634 -0.0427644
RightFoot  -0.624329 0.345092 -3.72004
RightToes  0.000482159 0.542163 -0.142577
Spine  58.765 -4.179 7.55023
Spine1  5.37821 0.685295 -2.26908
HEad  -29.8642 -1.65097 -2.2904
LeftShoulder1  13.0727 -23.2075 -42.4239
LeftArm  -10.9376 -35.0297 -30.8612
LeftForeArm  22.9054 0.61965 -7.12408
LeftHand  -0.25398 0.0180481 5.50724
RightShoulder  6.07281 14.818 27.0626
RightArm  -8.9546 44.5031 40.1086
RightForeArm  -1.57635 1.47822 7.91774
RightHand  -2.53596 6.0548 -25.7038
LeftUpLeg  -32.2843 21.5026 -11.5772
LeftLeg  15.6192 -0.990716 -1.53861
LeftFoot  0.90455 -0.563317 5.19525
LeftToes  1.06247e-005 4.65854e-005 -8.18501e-006
